<svg width="48" height="36" viewBox="0 0 48 36" fill="none" xmlns="http://www.w3.org/2000/svg">
<rect width="48" height="36" fill="#A2A2A2"/>
<g id="640px">
<path d="M-138 -113C-138 -114.105 -137.105 -115 -136 -115H743C744.105 -115 745 -114.105 745 -113V1034C745 1035.1 744.105 1036 743 1036H-136C-137.105 1036 -138 1035.1 -138 1034V-113Z" fill="#444444"/>
<path d="M-136 -114H743V-116H-136V-114ZM744 -113V1034H746V-113H744ZM743 1035H-136V1037H743V1035ZM-137 1034V-113H-139V1034H-137ZM-136 1035C-136.552 1035 -137 1034.55 -137 1034H-139C-139 1035.66 -137.657 1037 -136 1037V1035ZM744 1034C744 1034.55 743.552 1035 743 1035V1037C744.657 1037 746 1035.66 746 1034H744ZM743 -114C743.552 -114 744 -113.552 744 -113H746C746 -114.657 744.657 -116 743 -116V-114ZM-136 -116C-137.657 -116 -139 -114.657 -139 -113H-137C-137 -113.552 -136.552 -114 -136 -114V-116Z" fill="black" fill-opacity="0.1"/>
<g id="Dashboard (min width 640px)" clip-path="url(#clip0_0_1)">
<rect width="640" height="969" transform="translate(-16 -24)" fill="white"/>
<g id="Sidebar">
<mask id="path-3-inside-1_0_1" fill="white">
<path d="M-16 -24H64V945H-16V-24Z"/>
</mask>
<path d="M-16 -24H64V945H-16V-24Z" fill="white"/>
<path d="M63 -24V945H65V-24H63Z" fill="#ECECEC" mask="url(#path-3-inside-1_0_1)"/>
<g id="Frame 4998">
<g id="Group">
<g id="Group_2">
<path id="Vector" d="M47.6787 10.2655C47.3225 8.63841 46.333 7.13035 45.0269 6.05884C43.4833 4.82859 41.5835 4.66984 39.6837 4.27299C36.6361 3.63802 33.6281 3.00304 30.5805 2.36807C26.9392 1.61404 23.3375 0.939391 19.6963 0.22505C17.4798 -0.211492 15.4613 -0.0924303 13.4823 1.29657C11.2263 2.84431 10.7118 5.02701 11.6221 7.32877C12.0179 8.32091 12.4137 9.31305 12.7699 10.3052L4.93324 13.2419C3.98334 13.5991 3.50839 14.6706 3.86461 15.6231L4.18124 16.4565C4.53745 17.4089 5.60609 17.8851 6.55599 17.528L14.3927 14.5912C14.7093 15.504 15.0655 16.4168 15.3821 17.3296L11.5825 18.7582C10.6326 19.1154 10.1577 20.1869 10.5139 21.1394L10.8305 21.9728C11.1867 22.9252 12.2554 23.4014 13.2053 23.0443L22.7043 19.4726C22.5459 18.9963 22.3481 18.5201 22.1897 18.0439L21.2003 15.4246C21.2003 15.385 21.2003 15.3453 21.2003 15.3056V15.1468C20.8045 14.2738 20.4878 13.361 20.1712 12.4482C19.6567 11.0195 19.1026 9.55117 18.588 8.12248C18.3506 7.44783 18.0735 6.77317 17.836 6.1382C17.5986 5.54292 17.6777 4.55079 18.2714 4.11425C18.4297 3.99519 18.5485 3.91582 18.7068 3.87613C18.9442 3.79676 19.3796 3.6777 20.2504 3.87613C21.5169 4.11424 22.7834 4.39204 24.0104 4.63016C24.4062 4.70953 24.7624 4.7889 25.1582 4.86827C28.2849 5.66198 31.5304 6.21758 34.6967 6.81286C36.082 7.05098 38.4568 7.01129 39.2483 8.43998C39.9608 9.70992 38.6942 11.0195 37.9818 11.972C37.1111 13.0832 36.1216 14.1547 35.2508 15.2659C33.826 17.0517 32.4011 18.8773 31.0555 20.7028C30.343 21.695 29.6306 22.6871 28.8786 23.6396C28.2453 24.4333 27.5329 25.5445 26.4643 25.7032C25.6331 25.8223 25.079 25.346 24.802 24.6317C24.4853 23.7983 24.1687 22.9649 23.8521 22.0918L10.316 27.1716C9.3661 27.5287 8.89115 28.6003 9.24737 29.5527L9.564 30.3861C9.92021 31.3386 10.9888 31.8148 11.9387 31.4576L19.7754 28.5209C20.092 29.394 20.4087 30.2671 20.7253 31.1005C21.3982 32.9657 22.5064 34.3547 24.4062 35.1484C26.6622 36.1008 30.066 35.5452 31.8075 33.8785C32.7969 32.926 33.5885 31.8148 34.4197 30.7036C35.2904 29.5527 36.2007 28.4018 37.1111 27.2906C40.3566 23.1237 43.7208 18.9963 46.8475 14.75C47.7974 13.4404 48.2328 11.7736 47.8766 10.1861L47.6787 10.2655Z" fill="#703BE7"/>
<path id="Vector_2" d="M5.37553 20.9984L1.8907 22.3049C0.846497 22.6963 0.316493 23.8624 0.706907 24.9095L0.900958 25.4299C1.29137 26.4769 2.45436 27.0083 3.49857 26.6169L6.9834 25.3104C8.02761 24.919 8.55761 23.7529 8.1672 22.7058L7.97315 22.1854C7.58273 21.1384 6.41974 20.607 5.37553 20.9984Z" fill="#703BE7"/>
</g>
</g>
</g>
</g>
</g>
</g>
<defs>
<clipPath id="clip0_0_1">
<rect width="640" height="969" fill="white" transform="translate(-16 -24)"/>
</clipPath>
</defs>
</svg>
