<svg width="140" height="42" viewBox="0 0 140 42" fill="none" xmlns="http://www.w3.org/2000/svg">
<path d="M15.0274 7.29109C15.094 7.30314 15.1607 7.3152 15.2294 7.32762C16.0603 7.47929 16.8889 7.64337 17.7174 7.80779C17.8483 7.83368 17.9792 7.85957 18.1101 7.88545C18.6203 7.98632 19.1304 8.08756 19.6405 8.18892C19.8809 8.23669 20.1213 8.2844 20.3617 8.3321C23.1893 8.8931 26.0148 9.46343 28.8329 10.0709C29.2654 10.1639 29.6983 10.2541 30.1324 10.3395C30.2216 10.3573 30.3107 10.375 30.3998 10.3928C30.5647 10.4254 30.7297 10.4575 30.8948 10.4888C32.3679 10.7822 33.5554 11.4969 34.4144 12.7452C35.0993 13.9023 35.4228 15.0969 35.1028 16.432C34.7955 17.4352 34.1748 18.213 33.5312 19.025C33.3328 19.2765 33.1394 19.5317 32.9458 19.7868C32.3023 20.629 31.6498 21.4642 30.9941 22.2969C30.8737 22.4498 30.7536 22.6029 30.6338 22.7563C30.301 23.1821 29.9642 23.6042 29.6223 24.0228C29.2987 24.4193 28.983 24.8207 28.6724 25.2274C28.2294 25.8073 27.7748 26.3777 27.3133 26.943C26.9322 27.4103 26.5619 27.8846 26.197 28.3649C26.1105 28.4785 26.0239 28.5921 25.9373 28.7058C25.8678 28.797 25.8678 28.797 25.797 28.89C25.7017 29.015 25.6064 29.1401 25.5111 29.2651C25.3106 29.528 25.1103 29.791 24.9112 30.055C24.5686 30.5079 24.2149 30.9442 23.8201 31.353C23.7737 31.4011 23.7273 31.4493 23.6795 31.4989C22.6353 32.5046 21.1861 32.7491 19.7929 32.7298C18.4381 32.6843 17.404 32.0523 16.4992 31.0866C15.7343 30.1547 15.3874 28.8669 14.9916 27.7537C14.3861 27.921 13.8011 28.1412 13.2134 28.3612C13.1083 28.4003 13.0032 28.4394 12.8981 28.4786C12.6233 28.5808 12.3487 28.6834 12.074 28.7859C11.7393 28.9109 11.4045 29.0357 11.0696 29.1604C10.8094 29.2573 10.5492 29.3543 10.2891 29.4514C10.2415 29.4692 10.1938 29.487 10.1447 29.5053C10.0161 29.5533 9.88761 29.6013 9.75907 29.6493C9.3195 29.8112 8.85197 29.8894 8.39276 29.7446C7.82678 29.4435 7.64316 28.9776 7.45022 28.397C7.33628 27.9818 7.31904 27.6639 7.4916 27.2656C7.81866 26.7104 8.30341 26.5037 8.89202 26.2975C9.00442 26.2567 9.00442 26.2567 9.11909 26.2151C9.36575 26.1257 9.61288 26.0378 9.86002 25.9498C10.0331 25.8874 10.2061 25.8246 10.3791 25.7618C10.4676 25.7297 10.5561 25.6976 10.6446 25.6655C10.7109 25.6415 10.7109 25.6415 10.7786 25.6169C10.9144 25.5677 11.0502 25.5186 11.186 25.4696C12.0536 25.1563 12.9176 24.8337 13.781 24.5089C14.022 24.4182 14.2631 24.3278 14.5042 24.2375C15.1616 23.9909 15.8186 23.7435 16.4729 23.489C16.5675 23.4524 16.662 23.4158 16.7566 23.3792C16.92 23.316 17.0829 23.2517 17.2456 23.1868C17.3138 23.1603 17.3821 23.1338 17.4523 23.1065C17.5092 23.0839 17.5661 23.0613 17.6247 23.0381C17.8045 22.9927 17.8825 22.9802 18.0476 23.0678C18.1417 23.2509 18.1417 23.2509 18.2256 23.4933C18.241 23.5361 18.2564 23.5789 18.2723 23.623C18.3215 23.7602 18.3694 23.8977 18.4169 24.0355C18.4642 24.1723 18.5119 24.3089 18.5608 24.4451C18.6054 24.5694 18.6487 24.6942 18.6918 24.8189C18.8299 25.1119 19.0114 25.3017 19.287 25.4701C19.6489 25.5524 19.9317 25.5238 20.2643 25.3521C20.8205 24.981 21.1911 24.4824 21.579 23.9506C21.654 23.8496 21.7289 23.7486 21.804 23.6477C22.0059 23.3755 22.2064 23.1023 22.4065 22.8288C22.9825 22.0416 23.5616 21.2578 24.1597 20.4871C24.2433 20.3783 24.3268 20.2694 24.4103 20.1604C25.2144 19.1119 26.0304 18.0715 26.8931 17.0703C27.3868 16.4973 27.8651 15.9149 28.3235 15.3131C28.3578 15.2687 28.392 15.2243 28.4272 15.1786C28.7577 14.7402 29.0748 14.2657 29.0493 13.6959C28.9815 13.3173 28.8134 13.0665 28.5097 12.8341C28.098 12.5718 27.6695 12.4625 27.1924 12.3751C27.1449 12.3664 27.0974 12.3577 27.0484 12.3487C26.6338 12.2734 26.2181 12.2051 25.8021 12.1381C23.6695 11.7946 21.5474 11.3923 19.4422 10.908C18.5545 10.7041 17.6645 10.5148 16.771 10.3376C16.6333 10.3103 16.4957 10.2827 16.3581 10.2549C16.1661 10.2162 15.9739 10.1785 15.7816 10.1409C15.7254 10.1295 15.6692 10.1181 15.6113 10.1063C15.0657 10.002 14.5138 9.92489 14.0156 10.2157C13.7881 10.3898 13.7233 10.5724 13.6782 10.8496C13.64 11.4661 13.8698 11.9791 14.0956 12.5396C14.1963 12.7896 14.2941 13.0406 14.392 13.2916C14.4442 13.4251 14.4964 13.5585 14.5488 13.6919C14.8413 14.4387 15.116 15.1919 15.3906 15.9455C15.7093 16.8189 16.0303 17.6913 16.3594 18.5609C16.3879 18.6364 16.4164 18.7119 16.4458 18.7896C16.5834 19.1536 16.7214 19.5173 16.8602 19.8809C16.9096 20.0112 16.9589 20.1416 17.0083 20.272C17.0311 20.3313 17.054 20.3906 17.0775 20.4518C17.0981 20.5064 17.1187 20.561 17.1399 20.6173C17.1669 20.6882 17.1669 20.6882 17.1945 20.7606C17.2327 20.8946 17.2327 20.8946 17.2327 21.1662C16.6304 21.3925 16.028 21.6187 15.4257 21.8447C15.1457 21.9498 14.8657 22.0549 14.5858 22.1601C14.4773 22.2009 14.3688 22.2416 14.2602 22.2824C14.2066 22.3026 14.1529 22.3227 14.0976 22.3435C13.8278 22.4448 13.5578 22.5459 13.2877 22.6467C13.2346 22.6665 13.1815 22.6863 13.1268 22.7067C13.0207 22.7462 12.9146 22.7858 12.8085 22.8253C12.5036 22.9392 12.1994 23.0546 11.8957 23.1714C11.7096 23.2429 11.5233 23.3134 11.3369 23.3838C11.2106 23.4319 11.0847 23.4811 10.9589 23.5303C10.4049 23.7385 9.89784 23.8788 9.33371 23.6365C8.77685 23.3111 8.57374 22.7867 8.40417 22.1849C8.33894 21.7519 8.37949 21.4019 8.58323 21.0137C8.85847 20.6596 9.22126 20.5229 9.62658 20.3683C9.68526 20.3454 9.74395 20.3225 9.80442 20.2989C9.99392 20.2252 10.1838 20.1524 10.3736 20.0796C10.5075 20.0277 10.6414 19.9757 10.7752 19.9237C10.9045 19.8737 11.0338 19.8239 11.1631 19.774C11.2246 19.7503 11.2862 19.7265 11.3496 19.702C11.4066 19.6802 11.4636 19.6585 11.5223 19.6361C11.5979 19.6071 11.5979 19.6071 11.675 19.5776C11.7998 19.5364 11.7998 19.5364 11.9356 19.5364C11.7115 18.9537 11.4874 18.371 11.2565 17.7706C10.9675 17.8284 10.7251 17.9028 10.4506 18.0051C10.405 18.022 10.3595 18.0389 10.3126 18.0563C10.1626 18.1121 10.0128 18.1682 9.86294 18.2243C9.75816 18.2633 9.65336 18.3023 9.54856 18.3413C9.27281 18.4439 8.99717 18.5469 8.72156 18.6499C8.44247 18.7541 8.16328 18.858 7.88409 18.962C7.52124 19.0972 7.15843 19.2324 6.79569 19.3679C6.70413 19.4021 6.61256 19.4362 6.52098 19.4704C6.2923 19.5557 6.06411 19.6422 5.83621 19.7295C5.41878 19.8809 4.98366 19.8816 4.57564 19.6976C3.99466 19.3521 3.82315 18.8077 3.65035 18.1781C3.57346 17.732 3.66939 17.3949 3.92199 17.0236C4.34724 16.5705 4.88234 16.4067 5.45266 16.202C5.55648 16.1639 5.66027 16.1258 5.76402 16.0875C6.03644 15.9872 6.30929 15.8882 6.58225 15.7894C6.85741 15.6897 7.13219 15.5888 7.40698 15.488C7.71738 15.3742 8.02781 15.2605 8.33857 15.1477C8.90619 14.9415 9.47129 14.7301 10.034 14.5109C10.0107 14.4502 9.98733 14.3896 9.96327 14.3271C9.88519 14.1241 9.80743 13.9211 9.72981 13.7179C9.69553 13.6284 9.66116 13.5389 9.62668 13.4495C9.12058 12.1361 8.66149 10.888 9.26553 9.51274C9.9002 8.35453 11.0316 7.69334 12.2497 7.30614C13.1486 7.06373 14.1201 7.12108 15.0274 7.29109Z" fill="#703BE7"/>
<path d="M80.3911 7.1561C80.9263 7.51041 81.2403 7.89683 81.4462 8.51105C81.4916 8.74864 81.4867 8.98532 81.4864 9.22628C81.4867 9.31088 81.4867 9.31088 81.4871 9.39719C81.4876 9.58651 81.4878 9.77583 81.4879 9.96515C81.4882 10.1008 81.4885 10.2365 81.4889 10.3721C81.4898 10.7412 81.4902 11.1103 81.4905 11.4794C81.4907 11.7104 81.491 11.9415 81.4913 12.1725C81.4922 12.8966 81.4929 13.6206 81.4931 14.3447C81.4934 15.178 81.4946 16.0114 81.4966 16.8448C81.4981 17.4902 81.4987 18.1356 81.4988 18.781C81.4989 19.1658 81.4993 19.5505 81.5005 19.9353C81.5017 20.2983 81.5018 20.6613 81.5012 21.0243C81.5011 21.1564 81.5014 21.2886 81.5021 21.4207C81.5075 22.5438 81.4407 23.6838 81.0567 24.7497C81.0363 24.8084 81.0159 24.867 80.9949 24.9275C80.1553 27.2673 78.4735 29.0904 76.2363 30.149C74.4131 30.9878 72.1595 31.2879 70.2036 30.743C70.1484 30.7276 70.0933 30.7123 70.0365 30.6965C67.604 29.9959 65.5833 28.4227 64.3499 26.2008C63.216 24.0753 62.9676 21.5585 63.6477 19.2473C64.0769 17.8848 64.7551 16.7153 65.7214 15.6666C65.8092 15.5703 65.8092 15.5703 65.8989 15.4721C66.9943 14.3248 68.4102 13.5198 69.9319 13.0859C70.0043 13.0646 70.0043 13.0646 70.0781 13.0429C71.9741 12.5098 74.2894 12.6511 76.044 13.5613C76.4868 13.8121 76.8776 14.1186 77.2664 14.4441C77.2668 14.3762 77.2672 14.3082 77.2676 14.2382C77.2715 13.5948 77.2764 12.9515 77.2824 12.3081C77.2854 11.9775 77.2881 11.6468 77.2899 11.3161C77.2917 10.9964 77.2944 10.6767 77.2978 10.357C77.299 10.2356 77.2997 10.1143 77.3002 9.99286C77.3073 8.15968 77.3073 8.15968 77.9455 7.51715C78.6068 6.92578 79.5769 6.71604 80.3911 7.1561ZM68.6652 18.5846C67.7458 19.6967 67.3052 21.0123 67.4192 22.4577C67.5589 23.5233 68.0558 24.5209 68.7774 25.31C68.8336 25.3744 68.8336 25.3744 68.891 25.44C69.7179 26.3339 70.9514 26.7964 72.1414 26.8911C73.587 26.9302 74.8975 26.4004 75.9479 25.4167C76.8557 24.4501 77.4022 23.1748 77.4022 21.8465C77.3097 20.3804 76.7584 19.0738 75.6514 18.0772C73.5475 16.4059 70.482 16.5511 68.6652 18.5846Z" fill="#703BE7"/>
<path d="M92.4446 12.7882C92.516 12.7882 92.516 12.7882 92.5888 12.7882C93.393 12.7906 94.1476 12.867 94.9234 13.0853C95.0513 13.1186 95.0513 13.1186 95.1818 13.1527C96.2292 13.4613 97.2741 14.0216 98.1153 14.7152C98.1524 14.745 98.1896 14.7748 98.2278 14.8056C98.7794 15.2496 99.2514 15.7074 99.6772 16.2771C99.7206 16.3308 99.7641 16.3845 99.8088 16.4398C100.496 17.3192 101.028 18.39 101.307 19.469C101.32 19.5185 101.333 19.5681 101.347 19.6191C101.518 20.2931 101.606 20.9549 101.617 21.6507C101.619 21.7142 101.621 21.7777 101.622 21.8431C101.619 22.4001 101.435 22.8303 101.082 23.2593C100.624 23.6325 100.268 23.8231 99.6692 23.8261C99.5949 23.8266 99.5949 23.8266 99.5191 23.8271C99.3527 23.8281 99.1862 23.8287 99.0198 23.8293C98.9007 23.8299 98.7816 23.8306 98.6624 23.8313C98.3386 23.8332 98.0148 23.8346 97.691 23.8359C97.3527 23.8374 97.0145 23.8393 96.6762 23.8411C96.0355 23.8445 95.3948 23.8475 94.754 23.8505C94.0247 23.8538 93.2953 23.8576 92.5659 23.8613C91.0654 23.8691 89.5649 23.8763 88.0643 23.8832C88.1271 24.0125 88.1903 24.1416 88.2537 24.2706C88.2889 24.3425 88.3241 24.4143 88.3603 24.4884C88.5224 24.7934 88.7199 25.0506 88.9472 25.3094C89.0065 25.3783 89.0065 25.3783 89.0671 25.4487C89.8121 26.2547 90.9771 26.8239 92.0793 26.8785C93.2863 26.9185 94.1781 26.6912 95.2524 26.1254C95.7149 25.9075 96.314 25.9099 96.8026 26.0349C96.9565 26.0989 97.0919 26.1708 97.2324 26.2602C97.2748 26.2866 97.3171 26.313 97.3608 26.3403C97.7964 26.6603 98.0851 27.2267 98.1832 27.7542C98.2447 28.3628 98.1229 28.8999 97.7417 29.3841C97.037 30.1117 95.9626 30.5154 94.9913 30.7423C94.9463 30.7533 94.9013 30.7642 94.855 30.7754C93.464 31.0966 91.6844 31.1343 90.3054 30.7423C90.2513 30.7274 90.1972 30.7124 90.1414 30.697C88.5681 30.249 87.2825 29.4862 86.0949 28.3654C86.0448 28.3197 85.9947 28.274 85.9431 28.2269C84.4151 26.7802 83.4472 24.559 83.3784 22.4571C83.3749 22.374 83.3714 22.2909 83.3678 22.2054C83.3128 20.2982 83.8191 18.3134 84.9404 16.7525C85.0121 16.6508 85.0121 16.6508 85.0852 16.5469C86.4251 14.7228 88.3416 13.4023 90.5771 12.9495C90.6658 12.931 90.6658 12.931 90.7564 12.9122C91.3188 12.8061 91.8734 12.7866 92.4446 12.7882ZM88.7755 18.5103C88.194 19.2285 88.194 19.2285 87.9285 20.0802C90.9764 20.0802 94.0243 20.0802 97.1645 20.0802C96.9708 19.1115 96.2008 18.2296 95.394 17.6879C93.2159 16.3694 90.5229 16.5171 88.7755 18.5103Z" fill="#703BE7"/>
<path d="M123.999 13.1315C124.644 13.6503 124.885 14.2792 125.183 15.0288C125.232 15.1511 125.282 15.2734 125.332 15.3956C125.439 15.6606 125.546 15.9258 125.653 16.1912C125.83 16.6316 126.009 17.0711 126.188 17.5105C126.251 17.6642 126.314 17.8179 126.376 17.9716C126.423 18.0866 126.423 18.0866 126.471 18.2041C126.629 18.5917 126.787 18.9794 126.945 19.3672C126.976 19.4434 127.007 19.5195 127.039 19.598C127.193 19.977 127.347 20.3559 127.501 20.7349C127.645 21.0888 127.789 21.4425 127.933 21.7963C127.987 21.9271 128.04 22.0581 128.093 22.189C128.166 22.3684 128.239 22.5477 128.312 22.727C128.333 22.7796 128.355 22.8323 128.376 22.8865C128.463 23.098 128.549 23.2845 128.676 23.4753C129.498 21.4681 129.498 21.4681 130.318 19.4602C130.458 19.1171 130.598 18.7741 130.738 18.4313C131.006 17.7776 131.272 17.1233 131.531 16.4662C131.652 16.1607 131.773 15.8556 131.895 15.5505C131.952 15.4055 132.01 15.2603 132.066 15.1148C132.727 13.4136 132.727 13.4136 133.515 12.9787C134.128 12.7227 134.745 12.7478 135.358 12.9952C135.873 13.2559 136.191 13.6453 136.418 14.1714C136.592 14.7232 136.525 15.2795 136.317 15.8095C136.299 15.8558 136.281 15.9021 136.263 15.9498C136.202 16.1045 136.141 16.2585 136.078 16.4125C136.046 16.4938 136.046 16.4938 136.012 16.5768C135.838 17.0055 135.661 17.4328 135.484 17.8599C135.427 17.9974 135.37 18.135 135.313 18.2725C134.758 19.612 134.198 20.9497 133.637 22.2866C133.568 22.4514 133.499 22.6161 133.43 22.7809C132.451 25.1155 131.461 27.4454 130.443 29.7626C130.389 29.8834 130.336 30.0042 130.284 30.1251C129.808 31.2124 129.317 32.3063 128.693 33.3183C128.66 33.3728 128.627 33.4272 128.592 33.4834C127.906 34.6005 127.186 35.6646 126.301 36.6335C126.192 36.7539 126.09 36.8754 125.989 37.0025C124.489 38.7334 122.159 39.4974 119.948 39.6821C119.538 39.7113 119.129 39.7257 118.718 39.7317C118.652 39.7335 118.585 39.7352 118.516 39.737C117.905 39.7385 117.351 39.5747 116.896 39.1523C116.488 38.6626 116.328 38.0906 116.384 37.4651C116.518 36.8641 116.82 36.3847 117.335 36.039C117.782 35.7838 118.217 35.8087 118.723 35.8055C120.24 35.7705 121.502 35.3922 122.632 34.3412C122.696 34.2828 122.761 34.2244 122.828 34.1643C124.094 32.9849 124.911 31.388 125.709 29.876C125.74 29.8166 125.772 29.7571 125.804 29.6959C125.847 29.6133 125.847 29.6133 125.891 29.529C125.916 29.4811 125.941 29.4331 125.966 29.3837C126.191 28.8852 126.152 28.3359 125.97 27.831C125.911 27.6844 125.851 27.5384 125.79 27.393C125.757 27.3117 125.723 27.2304 125.689 27.1466C125.597 26.9209 125.503 26.696 125.409 26.4713C125.347 26.3251 125.286 26.1788 125.225 26.0324C125.025 25.5534 124.823 25.0749 124.621 24.5968C124.307 23.8551 123.997 23.1117 123.689 22.3675C123.653 22.281 123.653 22.281 123.616 22.1928C123.519 21.9587 123.423 21.7246 123.326 21.4905C123.156 21.0805 122.986 20.6707 122.816 20.2609C122.322 19.0724 121.83 17.8831 121.341 16.6926C121.306 16.6059 121.306 16.6059 121.269 16.5175C121.203 16.3554 121.136 16.1932 121.07 16.031C121.05 15.983 121.03 15.935 121.01 15.8855C120.768 15.294 120.679 14.7058 120.9 14.0865C121.153 13.542 121.521 13.1439 122.083 12.9257C122.767 12.7098 123.371 12.7929 123.999 13.1315Z" fill="#703BE7"/>
<path d="M42.5008 13.1759C42.9648 13.5443 43.2061 14.0689 43.4176 14.609C43.4394 14.6633 43.4612 14.7177 43.4836 14.7737C43.5306 14.891 43.5773 15.0084 43.6239 15.1259C43.7246 15.3802 43.8265 15.6341 43.9282 15.888C43.9816 16.0213 44.035 16.1545 44.0883 16.2878C44.367 16.9851 44.6514 17.6801 44.9363 18.3749C44.9867 18.4979 45.0371 18.6209 45.0874 18.7439C45.1637 18.93 45.2399 19.1162 45.3162 19.3023C45.5089 19.7726 45.7012 20.2429 45.8934 20.7133C45.9498 20.8512 46.0061 20.989 46.0624 21.1268C46.1437 21.3258 46.2251 21.5247 46.3063 21.7237C46.3808 21.906 46.4553 22.0883 46.5298 22.2705C46.5625 22.3506 46.5625 22.3506 46.5959 22.4324C46.6165 22.4826 46.637 22.5329 46.6582 22.5847C46.6873 22.6558 46.6873 22.6558 46.7169 22.7284C46.7729 22.8625 46.8319 22.995 46.8913 23.1277C46.9779 23.3409 46.9779 23.3409 46.9779 23.5447C47.0227 23.5447 47.0675 23.5447 47.1137 23.5447C47.1233 23.508 47.1329 23.4713 47.1428 23.4336C47.2856 22.9223 47.487 22.4398 47.6942 21.9524C47.8091 21.682 47.9226 21.4111 48.0361 21.1402C48.0603 21.0823 48.0846 21.0245 48.1096 20.9649C48.3716 20.3384 48.626 19.709 48.8798 19.0791C48.9603 18.8793 49.0411 18.6795 49.1218 18.4797C49.3832 17.8328 49.6439 17.1856 49.903 16.5376C50.0254 16.2319 50.1484 15.9264 50.2717 15.621C50.3305 15.4747 50.389 15.3283 50.4473 15.1818C50.5285 14.9776 50.6107 14.7737 50.6931 14.57C50.7166 14.5101 50.7402 14.4503 50.7644 14.3886C51.0293 13.7402 51.3812 13.2834 52.0034 12.9504C52.538 12.7366 53.123 12.7521 53.6659 12.935C54.2478 13.2183 54.6411 13.7059 54.8556 14.3087C55.1108 15.4154 54.449 16.5216 54.028 17.5175C53.9667 17.6632 53.9055 17.809 53.8444 17.9548C53.7202 18.2509 53.5958 18.547 53.4713 18.843C53.2408 19.3915 53.0131 19.9412 52.7857 20.491C52.3497 21.545 51.9116 22.598 51.4728 23.6508C51.4447 23.7182 51.4166 23.7855 51.3877 23.8549C51.1855 24.3401 50.9832 24.8252 50.7809 25.3104C50.5656 25.8268 50.3503 26.3433 50.135 26.8598C50.0495 27.065 49.9639 27.2702 49.8784 27.4753C49.8517 27.5394 49.825 27.6035 49.7974 27.6696C49.7455 27.7942 49.6935 27.9188 49.6415 28.0433C49.5216 28.3307 49.4029 28.6184 49.2868 28.9073C49.2655 28.96 49.2442 29.0128 49.2222 29.0671C49.1831 29.1643 49.1442 29.2616 49.1058 29.3591C48.9527 29.7384 48.7565 30.0434 48.4719 30.3358C48.4385 30.3703 48.4051 30.4048 48.3706 30.4404C47.9065 30.8693 47.4073 30.918 46.8015 30.9025C46.2361 30.8454 45.7894 30.5541 45.4159 30.1321C45.1799 29.7898 44.999 29.44 44.8461 29.0543C44.8154 28.9786 44.8154 28.9786 44.784 28.9015C44.7399 28.7928 44.6961 28.6841 44.6524 28.5752C44.5581 28.3399 44.4625 28.105 44.3671 27.8701C44.317 27.7467 44.267 27.6233 44.217 27.4998C43.9512 26.8434 43.68 26.1893 43.4083 25.5353C43.3596 25.4181 43.311 25.3008 43.2623 25.1836C42.9302 24.3833 42.597 23.5835 42.2635 22.7837C41.8028 21.6788 41.3443 20.573 40.8861 19.467C40.7048 19.0297 40.5234 18.5924 40.3419 18.1552C40.2632 17.9656 40.1845 17.776 40.1058 17.5864C40.0557 17.4656 40.0056 17.3449 39.9554 17.2242C39.8237 16.907 39.6922 16.5897 39.5612 16.2721C39.5134 16.1564 39.4654 16.0408 39.4173 15.9253C39.3929 15.8658 39.3685 15.8064 39.3434 15.7452C39.3237 15.6974 39.304 15.6497 39.2837 15.6006C39.0634 14.9661 39.1604 14.4282 39.4397 13.8333C39.7212 13.3418 40.1073 13.021 40.6536 12.8613C41.3147 12.7286 41.9246 12.8092 42.5008 13.1759Z" fill="#703BE7"/>
<path d="M109.389 5.61588C109.903 5.94639 110.15 6.40499 110.34 6.97411C110.399 7.71649 110.333 8.30683 109.847 8.88837C109.682 9.06529 109.508 9.21928 109.321 9.37225C108.644 9.95485 108.411 10.6986 108.343 11.5653C108.325 11.8458 108.312 12.1261 108.302 12.4071C108.38 12.4049 108.38 12.4049 108.459 12.4027C108.697 12.397 108.934 12.3935 109.172 12.3901C109.254 12.3878 109.335 12.3855 109.418 12.3832C110.086 12.3759 110.749 12.4731 111.252 12.9538C111.696 13.5061 111.877 14.1093 111.821 14.8092C111.727 15.379 111.383 15.8173 110.958 16.1905C110.406 16.5289 109.885 16.5065 109.253 16.4945C109.161 16.4935 109.068 16.4925 108.976 16.4917C108.751 16.4893 108.527 16.486 108.302 16.4818C108.303 16.5473 108.303 16.6128 108.303 16.6803C108.309 18.2759 108.314 19.8715 108.316 21.4671C108.318 22.2387 108.32 23.0104 108.323 23.782C108.325 24.4547 108.327 25.1274 108.328 25.8C108.328 26.1561 108.329 26.5122 108.331 26.8682C108.333 27.2037 108.333 27.5391 108.333 27.8746C108.333 27.9974 108.334 28.1202 108.335 28.243C108.341 29.0689 108.305 29.7894 107.701 30.4153C107.12 30.9107 106.54 31.0172 105.8 30.9775C105.196 30.924 104.773 30.637 104.363 30.1999C103.901 29.6349 103.867 28.9699 103.871 28.2651C103.871 28.1967 103.871 28.1282 103.871 28.0577C103.87 27.8301 103.871 27.6025 103.872 27.3748C103.871 27.2109 103.871 27.047 103.871 26.883C103.871 26.4848 103.871 26.0867 103.872 25.6885C103.873 25.2236 103.872 24.7586 103.872 24.2937C103.872 23.4629 103.873 22.6322 103.874 21.8014C103.875 20.998 103.875 20.1946 103.875 19.3912C103.875 19.3418 103.875 19.2924 103.875 19.2415C103.875 19.1922 103.875 19.1428 103.875 19.092C103.875 18.1743 103.876 17.2565 103.876 16.3387C103.877 16.0159 103.877 15.693 103.877 15.3702C103.877 14.9338 103.877 14.4974 103.878 14.061C103.878 13.9017 103.878 13.7425 103.878 13.5832C103.878 12.8629 103.881 12.1437 103.917 11.4241C103.92 11.3743 103.922 11.3244 103.925 11.273C104.016 9.69726 104.44 8.0981 105.518 6.9062C105.561 6.8563 105.605 6.8064 105.65 6.75499C105.959 6.42275 106.303 6.15578 106.672 5.89601C106.717 5.86446 106.761 5.83291 106.807 5.8004C107.609 5.25437 108.514 5.16237 109.389 5.61588Z" fill="#703BE7"/>
<path d="M117.199 5.61533C117.732 5.98749 118.089 6.46604 118.217 7.10939C118.236 7.35515 118.235 7.6 118.234 7.84641C118.235 7.91996 118.235 7.99351 118.235 8.06929C118.235 8.3154 118.235 8.5615 118.235 8.80761C118.235 8.98422 118.235 9.16083 118.235 9.33744C118.236 9.71767 118.236 10.0979 118.236 10.4781C118.236 11.0288 118.236 11.5796 118.238 12.1303C118.239 13.0251 118.241 13.9199 118.242 14.8147C118.242 14.8683 118.242 14.9218 118.242 14.9769C118.243 15.7358 118.243 16.4947 118.243 17.2536C118.243 17.307 118.243 17.3604 118.243 17.4154C118.243 17.4688 118.243 17.5221 118.243 17.577C118.243 18.4681 118.245 19.3592 118.247 20.2502C118.248 20.7991 118.249 21.348 118.248 21.8969C118.247 22.3181 118.248 22.7394 118.25 23.1606C118.25 23.3329 118.25 23.5051 118.249 23.6773C118.245 24.9794 118.29 25.9219 119.24 26.8844C119.387 27.0289 119.536 27.1681 119.69 27.3046C120.086 27.7546 120.28 28.2948 120.269 28.8929C120.207 29.5496 119.911 29.9934 119.461 30.454C119.023 30.7907 118.474 30.9287 117.929 30.904C116.966 30.7727 116.243 30.1045 115.569 29.4523C115.516 29.4016 115.464 29.3508 115.41 29.2985C114.55 28.4091 114.164 27.2529 113.956 26.0568C113.948 26.0118 113.94 25.9668 113.932 25.9204C113.765 24.8494 113.793 23.7547 113.793 22.6743C113.793 22.5065 113.793 22.3388 113.792 22.171C113.792 21.7652 113.792 21.3594 113.792 20.9536C113.792 20.6237 113.791 20.2938 113.791 19.9639C113.791 19.0264 113.79 18.0889 113.79 17.1513C113.79 17.101 113.79 17.0506 113.79 16.9988C113.79 16.9484 113.79 16.898 113.79 16.846C113.79 16.0275 113.79 15.209 113.789 14.3904C113.788 13.5478 113.787 12.7053 113.787 11.8627C113.787 11.3905 113.787 10.9182 113.787 10.446C113.786 10.0025 113.786 9.55894 113.786 9.11539C113.786 8.9528 113.786 8.79022 113.786 8.62763C113.785 8.40545 113.786 8.18328 113.786 7.9611C113.786 7.89703 113.786 7.83297 113.785 7.76696C113.789 7.01427 113.942 6.46754 114.455 5.90342C115.184 5.21708 116.338 5.09981 117.199 5.61533Z" fill="#703BE7"/>
<path d="M60.2084 13.0385C60.656 13.3828 60.9502 13.759 61.1037 14.3071C61.1306 14.5181 61.1313 14.726 61.1296 14.9385C61.1301 15.0306 61.1301 15.0306 61.1305 15.1245C61.1314 15.329 61.1307 15.5334 61.1301 15.7379C61.1304 15.8849 61.1307 16.032 61.1312 16.1791C61.1321 16.5777 61.1317 16.9763 61.1311 17.3749C61.1306 17.7924 61.131 18.2099 61.1314 18.6274C61.1317 19.3285 61.1312 20.0295 61.1303 20.7305C61.1292 21.5407 61.1295 22.3508 61.1306 23.1609C61.1316 23.8568 61.1317 24.5528 61.1312 25.2488C61.1309 25.6643 61.1308 26.0797 61.1315 26.4952C61.1321 26.8859 61.1317 27.2765 61.1305 27.6671C61.1302 27.8104 61.1303 27.9536 61.1307 28.0968C61.1313 28.2926 61.1306 28.4883 61.1296 28.6841C61.1303 28.7688 61.1303 28.7688 61.131 28.8552C61.1249 29.4571 60.9275 29.8926 60.5127 30.3308C60.0523 30.7419 59.5417 30.8919 58.9305 30.8775C58.3899 30.8343 57.8976 30.5911 57.5139 30.2082C57.1165 29.7153 56.998 29.1731 57.0031 28.5509C57.0028 28.4906 57.0025 28.4304 57.0022 28.3683C57.0014 28.1679 57.002 27.9676 57.0026 27.7673C57.0024 27.623 57.002 27.4787 57.0016 27.3344C57.0006 26.9436 57.001 26.5529 57.0016 26.1621C57.0022 25.7526 57.0017 25.3432 57.0014 24.9337C57.001 24.2461 57.0015 23.5585 57.0025 22.871C57.0036 22.0767 57.0032 21.2825 57.0021 20.4882C57.0012 19.8056 57.001 19.1229 57.0016 18.4403C57.0019 18.0329 57.0019 17.6255 57.0012 17.2181C57.0007 16.835 57.0011 16.4519 57.0022 16.0689C57.0025 15.9285 57.0024 15.7882 57.002 15.6478C57.0014 15.4558 57.0021 15.2638 57.0031 15.0718C57.0027 15.0166 57.0022 14.9615 57.0018 14.9047C57.0086 14.2313 57.2223 13.7841 57.6845 13.3001C58.3335 12.6997 59.4417 12.5808 60.2084 13.0385Z" fill="#703BE7"/>
<path d="M6.16772 22.3051C6.65507 22.6179 6.81543 23.1467 6.97789 23.6796C7.03631 24.1177 6.92313 24.5168 6.69775 24.894C6.34077 25.3267 5.77261 25.4683 5.26199 25.649C5.0611 25.7225 4.86329 25.802 4.66517 25.8827C3.1332 26.4996 3.1332 26.4996 2.40234 26.2796C1.96173 26.0909 1.72065 25.7625 1.52373 25.3392C1.34177 24.8468 1.30083 24.2764 1.51099 23.7857C1.81513 23.3009 2.32625 23.0666 2.84509 22.8736C2.93172 22.8406 2.93172 22.8406 3.0201 22.8069C3.14144 22.7609 3.26295 22.7154 3.38462 22.6703C3.56897 22.6017 3.75236 22.5308 3.93579 22.4598C5.3961 21.9056 5.3961 21.9056 6.16772 22.3051Z" fill="#703BE7"/>
<path d="M108.234 30.7422C108.438 30.8101 108.438 30.8101 108.438 30.8101L108.234 30.7422Z" fill="white"/>
</svg>
