<svg width="48" height="36" viewBox="0 0 48 36" fill="none" xmlns="http://www.w3.org/2000/svg">
<path d="M47.6786 10.2655C47.3224 8.63841 46.3329 7.13035 45.0268 6.05884C43.4832 4.82859 41.5834 4.66984 39.6836 4.27299C36.636 3.63802 33.628 3.00304 30.5804 2.36807C26.9391 1.61404 23.3374 0.939391 19.6961 0.22505C17.4797 -0.211492 15.4612 -0.0924303 13.4822 1.29657C11.2262 2.84431 10.7117 5.02701 11.622 7.32877C12.0178 8.32091 12.4136 9.31305 12.7698 10.3052L4.93312 13.2419C3.98322 13.5991 3.50827 14.6706 3.86448 15.6231L4.18112 16.4565C4.53733 17.4089 5.60596 17.8851 6.55586 17.528L14.3925 14.5912C14.7092 15.504 15.0654 16.4168 15.382 17.3296L11.5824 18.7582C10.6325 19.1154 10.1576 20.1869 10.5138 21.1394L10.8304 21.9728C11.1866 22.9252 12.2553 23.4014 13.2052 23.0443L22.7041 19.4726C22.5458 18.9963 22.3479 18.5201 22.1896 18.0439L21.2001 15.4246C21.2001 15.385 21.2001 15.3453 21.2001 15.3056V15.1468C20.8043 14.2738 20.4877 13.361 20.1711 12.4482C19.6566 11.0195 19.1024 9.55117 18.5879 8.12248C18.3504 7.44783 18.0734 6.77317 17.8359 6.1382C17.5984 5.54292 17.6776 4.55079 18.2713 4.11425C18.4296 3.99519 18.5483 3.91582 18.7067 3.87613C18.9441 3.79676 19.3795 3.6777 20.2502 3.87613C21.5168 4.11424 22.7833 4.39204 24.0103 4.63016C24.406 4.70953 24.7623 4.7889 25.158 4.86827C28.2848 5.66198 31.5303 6.21758 34.6966 6.81286C36.0819 7.05098 38.4566 7.01129 39.2482 8.43998C39.9606 9.70992 38.6941 11.0195 37.9817 11.972C37.1109 13.0832 36.1215 14.1547 35.2507 15.2659C33.8259 17.0517 32.401 18.8773 31.0553 20.7028C30.3429 21.695 29.6305 22.6871 28.8785 23.6396C28.2452 24.4333 27.5328 25.5445 26.4642 25.7032C25.633 25.8223 25.0789 25.346 24.8018 24.6317C24.4852 23.7983 24.1686 22.9649 23.8519 22.0918L10.3159 27.1716C9.36598 27.5287 8.89103 28.6003 9.24724 29.5527L9.56388 30.3861C9.92009 31.3386 10.9887 31.8148 11.9386 31.4576L19.7753 28.5209C20.0919 29.394 20.4086 30.2671 20.7252 31.1005C21.398 32.9657 22.5062 34.3547 24.406 35.1484C26.6621 36.1008 30.0659 35.5452 31.8073 33.8785C32.7968 32.926 33.5884 31.8148 34.4196 30.7036C35.2903 29.5527 36.2006 28.4018 37.1109 27.2906C40.3564 23.1237 43.7206 18.9963 46.8474 14.75C47.7973 13.4404 48.2327 11.7736 47.8765 10.1861L47.6786 10.2655Z" fill="#703BE7"/>
<path d="M5.37553 20.9984L1.8907 22.3049C0.846497 22.6963 0.316493 23.8624 0.706907 24.9095L0.900958 25.4299C1.29137 26.4769 2.45436 27.0083 3.49857 26.6169L6.9834 25.3104C8.02761 24.919 8.55761 23.7529 8.1672 22.7058L7.97315 22.1854C7.58273 21.1384 6.41974 20.607 5.37553 20.9984Z" fill="#703BE7"/>
</svg>
