<svg width="40" height="40" viewBox="0 0 40 40" fill="none" xmlns="http://www.w3.org/2000/svg">
<path d="M13.7804 19.5376C13.7136 20.8067 13.7904 22.1576 12.6565 23.008C12.1288 23.4038 11.8182 24.0249 11.8182 24.6846C11.8182 25.592 12.529 26.364 13.4546 26.364H26.5455C27.4711 26.364 28.1819 25.592 28.1819 24.6846C28.1819 24.0249 27.8713 23.4038 27.3436 23.008C26.2097 22.1576 26.2865 20.8067 26.2197 19.5376C26.0456 16.2297 23.3126 13.6367 20.0001 13.6367C16.6875 13.6367 13.9545 16.2296 13.7804 19.5376Z" stroke="#703BE7" stroke-width="1.5" stroke-linecap="round" stroke-linejoin="round"/>
<path d="M18.6364 11.9319C18.6364 12.685 19.2469 13.6365 20 13.6365C20.7531 13.6365 21.3636 12.685 21.3636 11.9319C21.3636 11.1788 20.7531 10.9092 20 10.9092C19.2469 10.9092 18.6364 11.1788 18.6364 11.9319Z" stroke="#703BE7" stroke-width="1.5"/>
<path d="M22.7273 26.3633C22.7273 27.8696 21.5063 29.0906 20 29.0906C18.4937 29.0906 17.2727 27.8696 17.2727 26.3633" stroke="#703BE7" stroke-width="1.5" stroke-linecap="round" stroke-linejoin="round"/>
<circle cx="25.4546" cy="15.4548" r="2.72727" fill="#F55656"/>
</svg>
