<svg xmlns="http://www.w3.org/2000/svg" fill="none" viewBox="11.07 10.16 17.86 19.68">
<path d="M13.7805 19.5371C13.7137 20.8062 13.7905 22.1571 12.6567 23.0075C12.1289 23.4033 11.8184 24.0244 11.8184 24.6841C11.8184 25.5915 12.5291 26.3635 13.4547 26.3635H26.5456C27.4713 26.3635 28.182 25.5915 28.182 24.6841C28.182 24.0244 27.8714 23.4033 27.3437 23.0075C26.2098 22.1571 26.2866 20.8062 26.2198 19.5371C26.0457 16.2292 23.3127 13.6362 20.0002 13.6362C16.6876 13.6362 13.9546 16.2292 13.7805 19.5371Z" stroke="#703BE7" stroke-width="1.5" stroke-linecap="round" stroke-linejoin="round"/>
<path d="M18.6367 11.9319C18.6367 12.685 19.2473 13.6365 20.0004 13.6365C20.7534 13.6365 21.364 12.685 21.364 11.9319C21.364 11.1788 20.7534 10.9092 20.0004 10.9092C19.2473 10.9092 18.6367 11.1788 18.6367 11.9319Z" stroke="#703BE7" stroke-width="1.5"/>
<path d="M22.727 26.3638C22.727 27.87 21.506 29.091 19.9997 29.091C18.4935 29.091 17.2725 27.87 17.2725 26.3638" stroke="#703BE7" stroke-width="1.5" stroke-linecap="round" stroke-linejoin="round"/>
<circle cx="25.4548" cy="15.4543" r="2.72727" fill="#F55656"/>
</svg>